<mxfile host="app.diagrams.net" modified="2024-04-14T08:01:34.895Z" agent="Mozilla/5.0 (Windows NT 10.0; Win64; x64) AppleWebKit/537.36 (KHTML, like Gecko) Chrome/123.0.0.0 Safari/537.36" etag="8U2ylkZ-k7T0YxY1nymu" version="24.2.5" type="github" pages="3">
  <diagram name="AI" id="9x-BZpUwlEio7pxuvAZR">
    <mxGraphModel dx="1647" dy="-173" grid="1" gridSize="10" guides="1" tooltips="1" connect="1" arrows="1" fold="1" page="1" pageScale="1" pageWidth="850" pageHeight="1100" background="none" math="0" shadow="0">
      <root>
        <mxCell id="0" />
        <mxCell id="1" parent="0" />
        <mxCell id="eT9WFd01mWbbqswTR8eX-2" value="" style="edgeStyle=orthogonalEdgeStyle;rounded=0;orthogonalLoop=1;jettySize=auto;html=1;fontSize=12;startSize=8;endSize=8;curved=1;entryX=0;entryY=0.5;entryDx=0;entryDy=0;" parent="1" source="m1wB9uHSATqWZEEPrCYo-193" target="eT9WFd01mWbbqswTR8eX-1" edge="1">
          <mxGeometry relative="1" as="geometry" />
        </mxCell>
        <mxCell id="eT9WFd01mWbbqswTR8eX-5" value="" style="edgeStyle=orthogonalEdgeStyle;curved=1;rounded=0;orthogonalLoop=1;jettySize=auto;html=1;strokeColor=default;align=center;verticalAlign=middle;fontFamily=Helvetica;fontSize=12;fontColor=default;labelBackgroundColor=default;startSize=8;endArrow=classic;endSize=8;entryX=0;entryY=0.5;entryDx=0;entryDy=0;" parent="1" source="m1wB9uHSATqWZEEPrCYo-193" target="eT9WFd01mWbbqswTR8eX-3" edge="1">
          <mxGeometry relative="1" as="geometry" />
        </mxCell>
        <mxCell id="eT9WFd01mWbbqswTR8eX-7" value="" style="edgeStyle=orthogonalEdgeStyle;curved=1;rounded=0;orthogonalLoop=1;jettySize=auto;html=1;strokeColor=default;align=center;verticalAlign=middle;fontFamily=Helvetica;fontSize=12;fontColor=default;labelBackgroundColor=default;startSize=8;endArrow=classic;endSize=8;entryX=0;entryY=0.5;entryDx=0;entryDy=0;" parent="1" source="m1wB9uHSATqWZEEPrCYo-193" target="eT9WFd01mWbbqswTR8eX-6" edge="1">
          <mxGeometry relative="1" as="geometry" />
        </mxCell>
        <mxCell id="eT9WFd01mWbbqswTR8eX-11" style="edgeStyle=orthogonalEdgeStyle;curved=1;rounded=0;orthogonalLoop=1;jettySize=auto;html=1;entryX=0;entryY=0.5;entryDx=0;entryDy=0;strokeColor=default;align=center;verticalAlign=middle;fontFamily=Helvetica;fontSize=12;fontColor=default;labelBackgroundColor=default;startSize=8;endArrow=classic;endSize=8;" parent="1" source="m1wB9uHSATqWZEEPrCYo-193" target="eT9WFd01mWbbqswTR8eX-8" edge="1">
          <mxGeometry relative="1" as="geometry" />
        </mxCell>
        <mxCell id="eT9WFd01mWbbqswTR8eX-12" style="edgeStyle=orthogonalEdgeStyle;curved=1;rounded=0;orthogonalLoop=1;jettySize=auto;html=1;entryX=0;entryY=0.5;entryDx=0;entryDy=0;strokeColor=default;align=center;verticalAlign=middle;fontFamily=Helvetica;fontSize=12;fontColor=default;labelBackgroundColor=default;startSize=8;endArrow=classic;endSize=8;" parent="1" source="m1wB9uHSATqWZEEPrCYo-193" target="eT9WFd01mWbbqswTR8eX-9" edge="1">
          <mxGeometry relative="1" as="geometry" />
        </mxCell>
        <mxCell id="eT9WFd01mWbbqswTR8eX-13" style="edgeStyle=orthogonalEdgeStyle;curved=1;rounded=0;orthogonalLoop=1;jettySize=auto;html=1;entryX=0;entryY=0.5;entryDx=0;entryDy=0;strokeColor=default;align=center;verticalAlign=middle;fontFamily=Helvetica;fontSize=12;fontColor=default;labelBackgroundColor=default;startSize=8;endArrow=classic;endSize=8;" parent="1" source="m1wB9uHSATqWZEEPrCYo-193" target="eT9WFd01mWbbqswTR8eX-10" edge="1">
          <mxGeometry relative="1" as="geometry" />
        </mxCell>
        <mxCell id="eT9WFd01mWbbqswTR8eX-26" value="" style="edgeStyle=orthogonalEdgeStyle;curved=1;rounded=0;orthogonalLoop=1;jettySize=auto;html=1;strokeColor=default;align=center;verticalAlign=middle;fontFamily=Helvetica;fontSize=12;fontColor=default;labelBackgroundColor=default;startSize=8;endArrow=classic;endSize=8;" parent="1" source="m1wB9uHSATqWZEEPrCYo-193" target="eT9WFd01mWbbqswTR8eX-8" edge="1">
          <mxGeometry relative="1" as="geometry" />
        </mxCell>
        <mxCell id="eT9WFd01mWbbqswTR8eX-28" style="edgeStyle=orthogonalEdgeStyle;curved=1;rounded=0;orthogonalLoop=1;jettySize=auto;html=1;entryX=0;entryY=0.5;entryDx=0;entryDy=0;strokeColor=default;align=center;verticalAlign=middle;fontFamily=Helvetica;fontSize=12;fontColor=default;labelBackgroundColor=default;startSize=8;endArrow=classic;endSize=8;" parent="1" source="m1wB9uHSATqWZEEPrCYo-193" target="eT9WFd01mWbbqswTR8eX-27" edge="1">
          <mxGeometry relative="1" as="geometry" />
        </mxCell>
        <mxCell id="m1wB9uHSATqWZEEPrCYo-193" value="&lt;b&gt;AI&lt;/b&gt;&lt;div&gt;&lt;b&gt;What is AI&lt;/b&gt;&lt;/div&gt;" style="rounded=0;whiteSpace=wrap;html=1;" parent="1" vertex="1">
          <mxGeometry x="10" y="1470" width="90" height="30" as="geometry" />
        </mxCell>
        <mxCell id="eT9WFd01mWbbqswTR8eX-15" value="" style="edgeStyle=orthogonalEdgeStyle;curved=1;rounded=0;orthogonalLoop=1;jettySize=auto;html=1;strokeColor=default;align=center;verticalAlign=middle;fontFamily=Helvetica;fontSize=12;fontColor=default;labelBackgroundColor=default;startSize=8;endArrow=classic;endSize=8;entryX=0;entryY=0.5;entryDx=0;entryDy=0;" parent="1" source="eT9WFd01mWbbqswTR8eX-1" target="eT9WFd01mWbbqswTR8eX-14" edge="1">
          <mxGeometry relative="1" as="geometry" />
        </mxCell>
        <mxCell id="eT9WFd01mWbbqswTR8eX-1" value="&lt;b&gt;Machine Learning&lt;/b&gt;" style="rounded=0;whiteSpace=wrap;html=1;" parent="1" vertex="1">
          <mxGeometry x="200" y="1170" width="60" height="30" as="geometry" />
        </mxCell>
        <mxCell id="eT9WFd01mWbbqswTR8eX-17" value="" style="edgeStyle=orthogonalEdgeStyle;curved=1;rounded=0;orthogonalLoop=1;jettySize=auto;html=1;strokeColor=default;align=center;verticalAlign=middle;fontFamily=Helvetica;fontSize=12;fontColor=default;labelBackgroundColor=default;startSize=8;endArrow=classic;endSize=8;entryX=0;entryY=0.5;entryDx=0;entryDy=0;" parent="1" source="eT9WFd01mWbbqswTR8eX-3" target="eT9WFd01mWbbqswTR8eX-16" edge="1">
          <mxGeometry relative="1" as="geometry" />
        </mxCell>
        <mxCell id="eT9WFd01mWbbqswTR8eX-22" style="edgeStyle=orthogonalEdgeStyle;curved=1;rounded=0;orthogonalLoop=1;jettySize=auto;html=1;entryX=0;entryY=0.5;entryDx=0;entryDy=0;strokeColor=default;align=center;verticalAlign=middle;fontFamily=Helvetica;fontSize=12;fontColor=default;labelBackgroundColor=default;startSize=8;endArrow=classic;endSize=8;" parent="1" source="eT9WFd01mWbbqswTR8eX-3" target="eT9WFd01mWbbqswTR8eX-18" edge="1">
          <mxGeometry relative="1" as="geometry" />
        </mxCell>
        <mxCell id="eT9WFd01mWbbqswTR8eX-23" style="edgeStyle=orthogonalEdgeStyle;curved=1;rounded=0;orthogonalLoop=1;jettySize=auto;html=1;entryX=0;entryY=0.5;entryDx=0;entryDy=0;strokeColor=default;align=center;verticalAlign=middle;fontFamily=Helvetica;fontSize=12;fontColor=default;labelBackgroundColor=default;startSize=8;endArrow=classic;endSize=8;" parent="1" source="eT9WFd01mWbbqswTR8eX-3" target="eT9WFd01mWbbqswTR8eX-19" edge="1">
          <mxGeometry relative="1" as="geometry" />
        </mxCell>
        <mxCell id="eT9WFd01mWbbqswTR8eX-24" style="edgeStyle=orthogonalEdgeStyle;curved=1;rounded=0;orthogonalLoop=1;jettySize=auto;html=1;entryX=0;entryY=0.5;entryDx=0;entryDy=0;strokeColor=default;align=center;verticalAlign=middle;fontFamily=Helvetica;fontSize=12;fontColor=default;labelBackgroundColor=default;startSize=8;endArrow=classic;endSize=8;" parent="1" source="eT9WFd01mWbbqswTR8eX-3" target="eT9WFd01mWbbqswTR8eX-20" edge="1">
          <mxGeometry relative="1" as="geometry" />
        </mxCell>
        <mxCell id="eT9WFd01mWbbqswTR8eX-25" style="edgeStyle=orthogonalEdgeStyle;curved=1;rounded=0;orthogonalLoop=1;jettySize=auto;html=1;entryX=0;entryY=0.5;entryDx=0;entryDy=0;strokeColor=default;align=center;verticalAlign=middle;fontFamily=Helvetica;fontSize=12;fontColor=default;labelBackgroundColor=default;startSize=8;endArrow=classic;endSize=8;" parent="1" source="eT9WFd01mWbbqswTR8eX-3" target="eT9WFd01mWbbqswTR8eX-21" edge="1">
          <mxGeometry relative="1" as="geometry" />
        </mxCell>
        <mxCell id="eT9WFd01mWbbqswTR8eX-3" value="&lt;b&gt;Computer vision&lt;/b&gt;" style="rounded=0;whiteSpace=wrap;html=1;" parent="1" vertex="1">
          <mxGeometry x="210" y="1260" width="90" height="30" as="geometry" />
        </mxCell>
        <mxCell id="eT9WFd01mWbbqswTR8eX-6" value="&lt;b&gt;NLP&lt;/b&gt;" style="rounded=0;whiteSpace=wrap;html=1;" parent="1" vertex="1">
          <mxGeometry x="185" y="1410" width="90" height="30" as="geometry" />
        </mxCell>
        <mxCell id="eT9WFd01mWbbqswTR8eX-8" value="&lt;b&gt;Document Intelligence&lt;/b&gt;" style="rounded=0;whiteSpace=wrap;html=1;" parent="1" vertex="1">
          <mxGeometry x="185" y="1470" width="90" height="30" as="geometry" />
        </mxCell>
        <mxCell id="eT9WFd01mWbbqswTR8eX-9" value="&lt;b&gt;Knowledge Mining&lt;/b&gt;" style="rounded=0;whiteSpace=wrap;html=1;" parent="1" vertex="1">
          <mxGeometry x="185" y="1530" width="90" height="30" as="geometry" />
        </mxCell>
        <mxCell id="eT9WFd01mWbbqswTR8eX-10" value="&lt;b&gt;Generative AI&lt;/b&gt;" style="rounded=0;whiteSpace=wrap;html=1;" parent="1" vertex="1">
          <mxGeometry x="185" y="1600" width="90" height="30" as="geometry" />
        </mxCell>
        <mxCell id="eT9WFd01mWbbqswTR8eX-14" value="&lt;b&gt;Machine Learning Models&lt;/b&gt;" style="rounded=0;whiteSpace=wrap;html=1;" parent="1" vertex="1">
          <mxGeometry x="280" y="1120" width="130" height="30" as="geometry" />
        </mxCell>
        <mxCell id="eT9WFd01mWbbqswTR8eX-16" value="&lt;b&gt;Image Classifications&lt;/b&gt;" style="rounded=0;whiteSpace=wrap;html=1;" parent="1" vertex="1">
          <mxGeometry x="350" y="1160" width="90" height="30" as="geometry" />
        </mxCell>
        <mxCell id="eT9WFd01mWbbqswTR8eX-18" value="&lt;b&gt;Object Detection&lt;/b&gt;" style="rounded=0;whiteSpace=wrap;html=1;" parent="1" vertex="1">
          <mxGeometry x="350" y="1210" width="90" height="30" as="geometry" />
        </mxCell>
        <mxCell id="eT9WFd01mWbbqswTR8eX-19" value="&lt;b&gt;Semantic Segmentation&lt;/b&gt;" style="rounded=0;whiteSpace=wrap;html=1;" parent="1" vertex="1">
          <mxGeometry x="350" y="1260" width="90" height="30" as="geometry" />
        </mxCell>
        <mxCell id="eT9WFd01mWbbqswTR8eX-20" value="&lt;b&gt;Face Detection and recognition&lt;/b&gt;" style="rounded=0;whiteSpace=wrap;html=1;" parent="1" vertex="1">
          <mxGeometry x="350" y="1310" width="100" height="30" as="geometry" />
        </mxCell>
        <mxCell id="eT9WFd01mWbbqswTR8eX-21" value="&lt;b&gt;Optical Character Recognition&lt;/b&gt;" style="rounded=0;whiteSpace=wrap;html=1;" parent="1" vertex="1">
          <mxGeometry x="350" y="1360" width="130" height="30" as="geometry" />
        </mxCell>
        <mxCell id="eT9WFd01mWbbqswTR8eX-27" value="&lt;b&gt;Challenges and Risks&lt;/b&gt;" style="rounded=0;whiteSpace=wrap;html=1;" parent="1" vertex="1">
          <mxGeometry x="185" y="1680" width="90" height="30" as="geometry" />
        </mxCell>
      </root>
    </mxGraphModel>
  </diagram>
  <diagram name="ML" id="7puf06v3CRy-qWKiz8AE">
    <mxGraphModel dx="2071" dy="-412" grid="1" gridSize="10" guides="1" tooltips="1" connect="1" arrows="1" fold="1" page="1" pageScale="1" pageWidth="850" pageHeight="1100" background="none" math="0" shadow="0">
      <root>
        <mxCell id="uPHWAmdfjxqhW9lOBMrn-0" />
        <mxCell id="uPHWAmdfjxqhW9lOBMrn-1" parent="uPHWAmdfjxqhW9lOBMrn-0" />
        <mxCell id="uPHWAmdfjxqhW9lOBMrn-2" value="" style="edgeStyle=orthogonalEdgeStyle;rounded=0;orthogonalLoop=1;jettySize=auto;html=1;fontSize=12;startSize=8;endSize=8;curved=1;entryX=0;entryY=0.5;entryDx=0;entryDy=0;" parent="uPHWAmdfjxqhW9lOBMrn-1" source="uPHWAmdfjxqhW9lOBMrn-10" target="uPHWAmdfjxqhW9lOBMrn-12" edge="1">
          <mxGeometry relative="1" as="geometry" />
        </mxCell>
        <mxCell id="uPHWAmdfjxqhW9lOBMrn-3" value="" style="edgeStyle=orthogonalEdgeStyle;curved=1;rounded=0;orthogonalLoop=1;jettySize=auto;html=1;strokeColor=default;align=center;verticalAlign=middle;fontFamily=Helvetica;fontSize=12;fontColor=default;labelBackgroundColor=default;startSize=8;endArrow=classic;endSize=8;entryX=0;entryY=0.5;entryDx=0;entryDy=0;" parent="uPHWAmdfjxqhW9lOBMrn-1" source="uPHWAmdfjxqhW9lOBMrn-10" target="uPHWAmdfjxqhW9lOBMrn-18" edge="1">
          <mxGeometry relative="1" as="geometry" />
        </mxCell>
        <mxCell id="uPHWAmdfjxqhW9lOBMrn-4" value="" style="edgeStyle=orthogonalEdgeStyle;curved=1;rounded=0;orthogonalLoop=1;jettySize=auto;html=1;strokeColor=default;align=center;verticalAlign=middle;fontFamily=Helvetica;fontSize=12;fontColor=default;labelBackgroundColor=default;startSize=8;endArrow=classic;endSize=8;entryX=0;entryY=0.5;entryDx=0;entryDy=0;" parent="uPHWAmdfjxqhW9lOBMrn-1" source="uPHWAmdfjxqhW9lOBMrn-10" target="uPHWAmdfjxqhW9lOBMrn-19" edge="1">
          <mxGeometry relative="1" as="geometry" />
        </mxCell>
        <mxCell id="uPHWAmdfjxqhW9lOBMrn-5" style="edgeStyle=orthogonalEdgeStyle;curved=1;rounded=0;orthogonalLoop=1;jettySize=auto;html=1;entryX=0;entryY=0.5;entryDx=0;entryDy=0;strokeColor=default;align=center;verticalAlign=middle;fontFamily=Helvetica;fontSize=12;fontColor=default;labelBackgroundColor=default;startSize=8;endArrow=classic;endSize=8;" parent="uPHWAmdfjxqhW9lOBMrn-1" source="uPHWAmdfjxqhW9lOBMrn-10" target="uPHWAmdfjxqhW9lOBMrn-20" edge="1">
          <mxGeometry relative="1" as="geometry" />
        </mxCell>
        <mxCell id="uPHWAmdfjxqhW9lOBMrn-6" style="edgeStyle=orthogonalEdgeStyle;curved=1;rounded=0;orthogonalLoop=1;jettySize=auto;html=1;entryX=0;entryY=0.5;entryDx=0;entryDy=0;strokeColor=default;align=center;verticalAlign=middle;fontFamily=Helvetica;fontSize=12;fontColor=default;labelBackgroundColor=default;startSize=8;endArrow=classic;endSize=8;" parent="uPHWAmdfjxqhW9lOBMrn-1" source="uPHWAmdfjxqhW9lOBMrn-10" target="uPHWAmdfjxqhW9lOBMrn-21" edge="1">
          <mxGeometry relative="1" as="geometry" />
        </mxCell>
        <mxCell id="uPHWAmdfjxqhW9lOBMrn-7" style="edgeStyle=orthogonalEdgeStyle;curved=1;rounded=0;orthogonalLoop=1;jettySize=auto;html=1;entryX=0;entryY=0.5;entryDx=0;entryDy=0;strokeColor=default;align=center;verticalAlign=middle;fontFamily=Helvetica;fontSize=12;fontColor=default;labelBackgroundColor=default;startSize=8;endArrow=classic;endSize=8;" parent="uPHWAmdfjxqhW9lOBMrn-1" source="uPHWAmdfjxqhW9lOBMrn-10" target="uPHWAmdfjxqhW9lOBMrn-22" edge="1">
          <mxGeometry relative="1" as="geometry" />
        </mxCell>
        <mxCell id="uPHWAmdfjxqhW9lOBMrn-10" value="&lt;b&gt;Basic Terminology&lt;/b&gt;" style="rounded=0;whiteSpace=wrap;html=1;" parent="uPHWAmdfjxqhW9lOBMrn-1" vertex="1">
          <mxGeometry x="-30" y="1470" width="130" height="30" as="geometry" />
        </mxCell>
        <mxCell id="uPHWAmdfjxqhW9lOBMrn-12" value="&lt;b&gt;Training Data&lt;/b&gt;" style="rounded=0;whiteSpace=wrap;html=1;" parent="uPHWAmdfjxqhW9lOBMrn-1" vertex="1">
          <mxGeometry x="225" y="1210" width="60" height="30" as="geometry" />
        </mxCell>
        <mxCell id="uPHWAmdfjxqhW9lOBMrn-18" value="&lt;b&gt;Algorithm&lt;/b&gt;" style="rounded=0;whiteSpace=wrap;html=1;" parent="uPHWAmdfjxqhW9lOBMrn-1" vertex="1">
          <mxGeometry x="210" y="1260" width="90" height="30" as="geometry" />
        </mxCell>
        <mxCell id="uPHWAmdfjxqhW9lOBMrn-19" value="&lt;b&gt;ML Model&lt;/b&gt;" style="rounded=0;whiteSpace=wrap;html=1;" parent="uPHWAmdfjxqhW9lOBMrn-1" vertex="1">
          <mxGeometry x="210" y="1320" width="90" height="30" as="geometry" />
        </mxCell>
        <mxCell id="uPHWAmdfjxqhW9lOBMrn-20" value="&lt;b&gt;Training Phase&lt;/b&gt;" style="rounded=0;whiteSpace=wrap;html=1;" parent="uPHWAmdfjxqhW9lOBMrn-1" vertex="1">
          <mxGeometry x="210" y="1370" width="90" height="30" as="geometry" />
        </mxCell>
        <mxCell id="uPHWAmdfjxqhW9lOBMrn-21" value="&lt;b&gt;Validation phase&lt;/b&gt;" style="rounded=0;whiteSpace=wrap;html=1;" parent="uPHWAmdfjxqhW9lOBMrn-1" vertex="1">
          <mxGeometry x="210" y="1430" width="90" height="30" as="geometry" />
        </mxCell>
        <mxCell id="uPHWAmdfjxqhW9lOBMrn-22" value="&lt;b&gt;Infrence&lt;/b&gt;" style="rounded=0;whiteSpace=wrap;html=1;" parent="uPHWAmdfjxqhW9lOBMrn-1" vertex="1">
          <mxGeometry x="210" y="1480" width="90" height="30" as="geometry" />
        </mxCell>
        <mxCell id="IqmzrMt0QIkkmBBErIuD-1" style="edgeStyle=orthogonalEdgeStyle;rounded=0;orthogonalLoop=1;jettySize=auto;html=1;entryX=0;entryY=0.5;entryDx=0;entryDy=0;fontSize=12;startSize=8;endSize=8;exitX=1;exitY=0.5;exitDx=0;exitDy=0;curved=1;" parent="uPHWAmdfjxqhW9lOBMrn-1" source="IqmzrMt0QIkkmBBErIuD-0" target="uPHWAmdfjxqhW9lOBMrn-10" edge="1">
          <mxGeometry relative="1" as="geometry" />
        </mxCell>
        <mxCell id="IqmzrMt0QIkkmBBErIuD-3" value="" style="edgeStyle=orthogonalEdgeStyle;curved=1;rounded=0;orthogonalLoop=1;jettySize=auto;html=1;strokeColor=default;align=center;verticalAlign=middle;fontFamily=Helvetica;fontSize=12;fontColor=default;labelBackgroundColor=default;startSize=8;endArrow=classic;endSize=8;entryX=0;entryY=0.5;entryDx=0;entryDy=0;" parent="uPHWAmdfjxqhW9lOBMrn-1" source="IqmzrMt0QIkkmBBErIuD-0" target="IqmzrMt0QIkkmBBErIuD-2" edge="1">
          <mxGeometry relative="1" as="geometry" />
        </mxCell>
        <mxCell id="IqmzrMt0QIkkmBBErIuD-0" value="&lt;b&gt;Machine Learning&lt;/b&gt;&lt;div&gt;&lt;b&gt;What is AI&lt;/b&gt;&lt;/div&gt;" style="rounded=0;whiteSpace=wrap;html=1;" parent="uPHWAmdfjxqhW9lOBMrn-1" vertex="1">
          <mxGeometry x="-290" y="1580" width="130" height="30" as="geometry" />
        </mxCell>
        <mxCell id="IqmzrMt0QIkkmBBErIuD-5" value="" style="edgeStyle=orthogonalEdgeStyle;curved=1;rounded=0;orthogonalLoop=1;jettySize=auto;html=1;strokeColor=default;align=center;verticalAlign=middle;fontFamily=Helvetica;fontSize=12;fontColor=default;labelBackgroundColor=default;startSize=8;endArrow=classic;endSize=8;entryX=0;entryY=0.5;entryDx=0;entryDy=0;" parent="uPHWAmdfjxqhW9lOBMrn-1" source="IqmzrMt0QIkkmBBErIuD-2" target="IqmzrMt0QIkkmBBErIuD-4" edge="1">
          <mxGeometry relative="1" as="geometry" />
        </mxCell>
        <mxCell id="IqmzrMt0QIkkmBBErIuD-7" style="edgeStyle=orthogonalEdgeStyle;curved=1;rounded=0;orthogonalLoop=1;jettySize=auto;html=1;entryX=0;entryY=0.5;entryDx=0;entryDy=0;strokeColor=default;align=center;verticalAlign=middle;fontFamily=Helvetica;fontSize=12;fontColor=default;labelBackgroundColor=default;startSize=8;endArrow=classic;endSize=8;" parent="uPHWAmdfjxqhW9lOBMrn-1" source="IqmzrMt0QIkkmBBErIuD-2" target="IqmzrMt0QIkkmBBErIuD-6" edge="1">
          <mxGeometry relative="1" as="geometry" />
        </mxCell>
        <mxCell id="IqmzrMt0QIkkmBBErIuD-2" value="&lt;b&gt;Types of ML&lt;/b&gt;" style="rounded=0;whiteSpace=wrap;html=1;" parent="uPHWAmdfjxqhW9lOBMrn-1" vertex="1">
          <mxGeometry x="-40" y="1690" width="130" height="30" as="geometry" />
        </mxCell>
        <mxCell id="IqmzrMt0QIkkmBBErIuD-9" value="" style="edgeStyle=orthogonalEdgeStyle;curved=1;rounded=0;orthogonalLoop=1;jettySize=auto;html=1;strokeColor=default;align=center;verticalAlign=middle;fontFamily=Helvetica;fontSize=12;fontColor=default;labelBackgroundColor=default;startSize=8;endArrow=classic;endSize=8;entryX=0;entryY=0.5;entryDx=0;entryDy=0;" parent="uPHWAmdfjxqhW9lOBMrn-1" source="IqmzrMt0QIkkmBBErIuD-4" target="IqmzrMt0QIkkmBBErIuD-8" edge="1">
          <mxGeometry relative="1" as="geometry" />
        </mxCell>
        <mxCell id="IqmzrMt0QIkkmBBErIuD-11" style="edgeStyle=orthogonalEdgeStyle;curved=1;rounded=0;orthogonalLoop=1;jettySize=auto;html=1;entryX=0;entryY=0.5;entryDx=0;entryDy=0;strokeColor=default;align=center;verticalAlign=middle;fontFamily=Helvetica;fontSize=12;fontColor=default;labelBackgroundColor=default;startSize=8;endArrow=classic;endSize=8;" parent="uPHWAmdfjxqhW9lOBMrn-1" source="IqmzrMt0QIkkmBBErIuD-4" target="IqmzrMt0QIkkmBBErIuD-10" edge="1">
          <mxGeometry relative="1" as="geometry" />
        </mxCell>
        <mxCell id="IqmzrMt0QIkkmBBErIuD-4" value="&lt;b&gt;Supervised ML&lt;/b&gt;" style="rounded=0;whiteSpace=wrap;html=1;" parent="uPHWAmdfjxqhW9lOBMrn-1" vertex="1">
          <mxGeometry x="200" y="1590" width="130" height="30" as="geometry" />
        </mxCell>
        <mxCell id="IqmzrMt0QIkkmBBErIuD-17" style="edgeStyle=orthogonalEdgeStyle;curved=1;rounded=0;orthogonalLoop=1;jettySize=auto;html=1;strokeColor=default;align=center;verticalAlign=middle;fontFamily=Helvetica;fontSize=12;fontColor=default;labelBackgroundColor=default;startSize=8;endArrow=classic;endSize=8;" parent="uPHWAmdfjxqhW9lOBMrn-1" source="IqmzrMt0QIkkmBBErIuD-6" target="IqmzrMt0QIkkmBBErIuD-16" edge="1">
          <mxGeometry relative="1" as="geometry" />
        </mxCell>
        <mxCell id="IqmzrMt0QIkkmBBErIuD-6" value="&lt;b&gt;Unsupervised ML&lt;/b&gt;" style="rounded=0;whiteSpace=wrap;html=1;" parent="uPHWAmdfjxqhW9lOBMrn-1" vertex="1">
          <mxGeometry x="200" y="1790" width="130" height="30" as="geometry" />
        </mxCell>
        <mxCell id="xH1i7q-O7p8ZMmWen-7e-2" value="" style="edgeStyle=orthogonalEdgeStyle;curved=1;rounded=0;orthogonalLoop=1;jettySize=auto;html=1;fontSize=12;startSize=8;endSize=8;entryX=0;entryY=0.5;entryDx=0;entryDy=0;" edge="1" parent="uPHWAmdfjxqhW9lOBMrn-1" source="IqmzrMt0QIkkmBBErIuD-8" target="xH1i7q-O7p8ZMmWen-7e-1">
          <mxGeometry relative="1" as="geometry" />
        </mxCell>
        <mxCell id="xH1i7q-O7p8ZMmWen-7e-5" value="" style="edgeStyle=orthogonalEdgeStyle;curved=1;rounded=0;orthogonalLoop=1;jettySize=auto;html=1;strokeColor=default;align=center;verticalAlign=middle;fontFamily=Helvetica;fontSize=12;fontColor=default;labelBackgroundColor=default;startSize=8;endArrow=classic;endSize=8;entryX=0;entryY=0.5;entryDx=0;entryDy=0;" edge="1" parent="uPHWAmdfjxqhW9lOBMrn-1" source="IqmzrMt0QIkkmBBErIuD-8" target="xH1i7q-O7p8ZMmWen-7e-4">
          <mxGeometry relative="1" as="geometry" />
        </mxCell>
        <mxCell id="IqmzrMt0QIkkmBBErIuD-8" value="&lt;b&gt;Regression&lt;/b&gt;" style="rounded=0;whiteSpace=wrap;html=1;" parent="uPHWAmdfjxqhW9lOBMrn-1" vertex="1">
          <mxGeometry x="420" y="1500" width="130" height="30" as="geometry" />
        </mxCell>
        <mxCell id="IqmzrMt0QIkkmBBErIuD-14" style="edgeStyle=orthogonalEdgeStyle;curved=1;rounded=0;orthogonalLoop=1;jettySize=auto;html=1;entryX=0;entryY=0.5;entryDx=0;entryDy=0;strokeColor=default;align=center;verticalAlign=middle;fontFamily=Helvetica;fontSize=12;fontColor=default;labelBackgroundColor=default;startSize=8;endArrow=classic;endSize=8;" parent="uPHWAmdfjxqhW9lOBMrn-1" source="IqmzrMt0QIkkmBBErIuD-10" target="IqmzrMt0QIkkmBBErIuD-12" edge="1">
          <mxGeometry relative="1" as="geometry" />
        </mxCell>
        <mxCell id="IqmzrMt0QIkkmBBErIuD-15" style="edgeStyle=orthogonalEdgeStyle;curved=1;rounded=0;orthogonalLoop=1;jettySize=auto;html=1;entryX=0;entryY=0.5;entryDx=0;entryDy=0;strokeColor=default;align=center;verticalAlign=middle;fontFamily=Helvetica;fontSize=12;fontColor=default;labelBackgroundColor=default;startSize=8;endArrow=classic;endSize=8;" parent="uPHWAmdfjxqhW9lOBMrn-1" source="IqmzrMt0QIkkmBBErIuD-10" target="IqmzrMt0QIkkmBBErIuD-13" edge="1">
          <mxGeometry relative="1" as="geometry" />
        </mxCell>
        <mxCell id="IqmzrMt0QIkkmBBErIuD-10" value="&lt;b&gt;Classification&lt;/b&gt;" style="rounded=0;whiteSpace=wrap;html=1;" parent="uPHWAmdfjxqhW9lOBMrn-1" vertex="1">
          <mxGeometry x="420" y="1590" width="130" height="30" as="geometry" />
        </mxCell>
        <mxCell id="IqmzrMt0QIkkmBBErIuD-12" value="&lt;b&gt;Binary Classification&lt;/b&gt;" style="rounded=0;whiteSpace=wrap;html=1;" parent="uPHWAmdfjxqhW9lOBMrn-1" vertex="1">
          <mxGeometry x="650" y="1600" width="130" height="30" as="geometry" />
        </mxCell>
        <mxCell id="IqmzrMt0QIkkmBBErIuD-13" value="&lt;b&gt;Multiclass Classification&lt;/b&gt;" style="rounded=0;whiteSpace=wrap;html=1;" parent="uPHWAmdfjxqhW9lOBMrn-1" vertex="1">
          <mxGeometry x="630" y="1680" width="130" height="30" as="geometry" />
        </mxCell>
        <mxCell id="IqmzrMt0QIkkmBBErIuD-16" value="&lt;b&gt;Clustering&lt;/b&gt;" style="rounded=0;whiteSpace=wrap;html=1;" parent="uPHWAmdfjxqhW9lOBMrn-1" vertex="1">
          <mxGeometry x="420" y="1790" width="130" height="30" as="geometry" />
        </mxCell>
        <mxCell id="xH1i7q-O7p8ZMmWen-7e-1" value="&lt;b&gt;Linear Regression&lt;/b&gt;" style="rounded=0;whiteSpace=wrap;html=1;" vertex="1" parent="uPHWAmdfjxqhW9lOBMrn-1">
          <mxGeometry x="640" y="1560" width="130" height="30" as="geometry" />
        </mxCell>
        <mxCell id="xH1i7q-O7p8ZMmWen-7e-3" value="Source&lt;br&gt;&lt;ul&gt;&lt;li&gt;&lt;a href=&quot;https://learn.microsoft.com/en-us/training/modules/fundamentals-machine-learning/4-regression&quot;&gt;Regression - Training | Microsoft Learn&lt;/a&gt;&lt;/li&gt;&lt;/ul&gt;" style="text;html=1;align=left;verticalAlign=top;whiteSpace=wrap;rounded=0;fontSize=16;" vertex="1" parent="uPHWAmdfjxqhW9lOBMrn-1">
          <mxGeometry x="-270" y="1970" width="710" height="230" as="geometry" />
        </mxCell>
        <mxCell id="xH1i7q-O7p8ZMmWen-7e-7" value="" style="edgeStyle=orthogonalEdgeStyle;curved=1;rounded=0;orthogonalLoop=1;jettySize=auto;html=1;strokeColor=default;align=center;verticalAlign=middle;fontFamily=Helvetica;fontSize=12;fontColor=default;labelBackgroundColor=default;startSize=8;endArrow=classic;endSize=8;entryX=0;entryY=0.5;entryDx=0;entryDy=0;" edge="1" parent="uPHWAmdfjxqhW9lOBMrn-1" source="xH1i7q-O7p8ZMmWen-7e-4" target="xH1i7q-O7p8ZMmWen-7e-6">
          <mxGeometry relative="1" as="geometry" />
        </mxCell>
        <mxCell id="xH1i7q-O7p8ZMmWen-7e-13" style="edgeStyle=orthogonalEdgeStyle;curved=1;rounded=0;orthogonalLoop=1;jettySize=auto;html=1;entryX=0;entryY=0.5;entryDx=0;entryDy=0;strokeColor=default;align=center;verticalAlign=middle;fontFamily=Helvetica;fontSize=12;fontColor=default;labelBackgroundColor=default;startSize=8;endArrow=classic;endSize=8;" edge="1" parent="uPHWAmdfjxqhW9lOBMrn-1" source="xH1i7q-O7p8ZMmWen-7e-4" target="xH1i7q-O7p8ZMmWen-7e-10">
          <mxGeometry relative="1" as="geometry" />
        </mxCell>
        <mxCell id="xH1i7q-O7p8ZMmWen-7e-14" style="edgeStyle=orthogonalEdgeStyle;curved=1;rounded=0;orthogonalLoop=1;jettySize=auto;html=1;entryX=0;entryY=0.5;entryDx=0;entryDy=0;strokeColor=default;align=center;verticalAlign=middle;fontFamily=Helvetica;fontSize=12;fontColor=default;labelBackgroundColor=default;startSize=8;endArrow=classic;endSize=8;" edge="1" parent="uPHWAmdfjxqhW9lOBMrn-1" source="xH1i7q-O7p8ZMmWen-7e-4" target="xH1i7q-O7p8ZMmWen-7e-11">
          <mxGeometry relative="1" as="geometry" />
        </mxCell>
        <mxCell id="xH1i7q-O7p8ZMmWen-7e-15" style="edgeStyle=orthogonalEdgeStyle;curved=1;rounded=0;orthogonalLoop=1;jettySize=auto;html=1;entryX=0;entryY=0.5;entryDx=0;entryDy=0;strokeColor=default;align=center;verticalAlign=middle;fontFamily=Helvetica;fontSize=12;fontColor=default;labelBackgroundColor=default;startSize=8;endArrow=classic;endSize=8;" edge="1" parent="uPHWAmdfjxqhW9lOBMrn-1" source="xH1i7q-O7p8ZMmWen-7e-4" target="xH1i7q-O7p8ZMmWen-7e-12">
          <mxGeometry relative="1" as="geometry" />
        </mxCell>
        <mxCell id="xH1i7q-O7p8ZMmWen-7e-4" value="&lt;b&gt;Evaluation Metrics&lt;/b&gt;" style="rounded=0;whiteSpace=wrap;html=1;" vertex="1" parent="uPHWAmdfjxqhW9lOBMrn-1">
          <mxGeometry x="630" y="1400" width="130" height="30" as="geometry" />
        </mxCell>
        <mxCell id="xH1i7q-O7p8ZMmWen-7e-6" value="&lt;b&gt;MAE (Mean Absolute Error)&lt;/b&gt;" style="rounded=0;whiteSpace=wrap;html=1;" vertex="1" parent="uPHWAmdfjxqhW9lOBMrn-1">
          <mxGeometry x="820" y="1270" width="130" height="40" as="geometry" />
        </mxCell>
        <mxCell id="xH1i7q-O7p8ZMmWen-7e-10" value="&lt;b&gt;MSE (Mean Squared Error)&lt;/b&gt;" style="rounded=0;whiteSpace=wrap;html=1;" vertex="1" parent="uPHWAmdfjxqhW9lOBMrn-1">
          <mxGeometry x="820" y="1330" width="130" height="40" as="geometry" />
        </mxCell>
        <mxCell id="xH1i7q-O7p8ZMmWen-7e-11" value="&lt;b&gt;RMSE (Root Mean Squared Error)&lt;/b&gt;" style="rounded=0;whiteSpace=wrap;html=1;" vertex="1" parent="uPHWAmdfjxqhW9lOBMrn-1">
          <mxGeometry x="820" y="1400" width="130" height="40" as="geometry" />
        </mxCell>
        <mxCell id="xH1i7q-O7p8ZMmWen-7e-12" value="&lt;b&gt;Coefficient of determination (R&lt;sup&gt;2&lt;/sup&gt;)&lt;/b&gt;" style="rounded=0;whiteSpace=wrap;html=1;" vertex="1" parent="uPHWAmdfjxqhW9lOBMrn-1">
          <mxGeometry x="820" y="1475" width="130" height="40" as="geometry" />
        </mxCell>
      </root>
    </mxGraphModel>
  </diagram>
  <diagram name="template" id="dULB98lrE-lF5J42v5TX">
    <mxGraphModel dx="2497" dy="-173" grid="1" gridSize="10" guides="1" tooltips="1" connect="1" arrows="1" fold="1" page="1" pageScale="1" pageWidth="850" pageHeight="1100" background="none" math="0" shadow="0">
      <root>
        <mxCell id="UqnikVBFZXVHztVdu1Yq-0" />
        <mxCell id="UqnikVBFZXVHztVdu1Yq-1" parent="UqnikVBFZXVHztVdu1Yq-0" />
        <mxCell id="UqnikVBFZXVHztVdu1Yq-2" value="" style="edgeStyle=orthogonalEdgeStyle;rounded=0;orthogonalLoop=1;jettySize=auto;html=1;fontSize=12;startSize=8;endSize=8;curved=1;entryX=0;entryY=0.5;entryDx=0;entryDy=0;" edge="1" parent="UqnikVBFZXVHztVdu1Yq-1" source="UqnikVBFZXVHztVdu1Yq-10" target="UqnikVBFZXVHztVdu1Yq-11">
          <mxGeometry relative="1" as="geometry" />
        </mxCell>
        <mxCell id="UqnikVBFZXVHztVdu1Yq-3" value="" style="edgeStyle=orthogonalEdgeStyle;curved=1;rounded=0;orthogonalLoop=1;jettySize=auto;html=1;strokeColor=default;align=center;verticalAlign=middle;fontFamily=Helvetica;fontSize=12;fontColor=default;labelBackgroundColor=default;startSize=8;endArrow=classic;endSize=8;entryX=0;entryY=0.5;entryDx=0;entryDy=0;" edge="1" parent="UqnikVBFZXVHztVdu1Yq-1" source="UqnikVBFZXVHztVdu1Yq-10" target="UqnikVBFZXVHztVdu1Yq-12">
          <mxGeometry relative="1" as="geometry" />
        </mxCell>
        <mxCell id="UqnikVBFZXVHztVdu1Yq-4" value="" style="edgeStyle=orthogonalEdgeStyle;curved=1;rounded=0;orthogonalLoop=1;jettySize=auto;html=1;strokeColor=default;align=center;verticalAlign=middle;fontFamily=Helvetica;fontSize=12;fontColor=default;labelBackgroundColor=default;startSize=8;endArrow=classic;endSize=8;entryX=0;entryY=0.5;entryDx=0;entryDy=0;" edge="1" parent="UqnikVBFZXVHztVdu1Yq-1" source="UqnikVBFZXVHztVdu1Yq-10" target="UqnikVBFZXVHztVdu1Yq-13">
          <mxGeometry relative="1" as="geometry" />
        </mxCell>
        <mxCell id="UqnikVBFZXVHztVdu1Yq-5" style="edgeStyle=orthogonalEdgeStyle;curved=1;rounded=0;orthogonalLoop=1;jettySize=auto;html=1;entryX=0;entryY=0.5;entryDx=0;entryDy=0;strokeColor=default;align=center;verticalAlign=middle;fontFamily=Helvetica;fontSize=12;fontColor=default;labelBackgroundColor=default;startSize=8;endArrow=classic;endSize=8;" edge="1" parent="UqnikVBFZXVHztVdu1Yq-1" source="UqnikVBFZXVHztVdu1Yq-10" target="UqnikVBFZXVHztVdu1Yq-14">
          <mxGeometry relative="1" as="geometry" />
        </mxCell>
        <mxCell id="UqnikVBFZXVHztVdu1Yq-6" style="edgeStyle=orthogonalEdgeStyle;curved=1;rounded=0;orthogonalLoop=1;jettySize=auto;html=1;entryX=0;entryY=0.5;entryDx=0;entryDy=0;strokeColor=default;align=center;verticalAlign=middle;fontFamily=Helvetica;fontSize=12;fontColor=default;labelBackgroundColor=default;startSize=8;endArrow=classic;endSize=8;" edge="1" parent="UqnikVBFZXVHztVdu1Yq-1" source="UqnikVBFZXVHztVdu1Yq-10" target="UqnikVBFZXVHztVdu1Yq-15">
          <mxGeometry relative="1" as="geometry" />
        </mxCell>
        <mxCell id="UqnikVBFZXVHztVdu1Yq-7" style="edgeStyle=orthogonalEdgeStyle;curved=1;rounded=0;orthogonalLoop=1;jettySize=auto;html=1;entryX=0;entryY=0.5;entryDx=0;entryDy=0;strokeColor=default;align=center;verticalAlign=middle;fontFamily=Helvetica;fontSize=12;fontColor=default;labelBackgroundColor=default;startSize=8;endArrow=classic;endSize=8;" edge="1" parent="UqnikVBFZXVHztVdu1Yq-1" source="UqnikVBFZXVHztVdu1Yq-10" target="UqnikVBFZXVHztVdu1Yq-16">
          <mxGeometry relative="1" as="geometry" />
        </mxCell>
        <mxCell id="UqnikVBFZXVHztVdu1Yq-8" value="" style="edgeStyle=orthogonalEdgeStyle;curved=1;rounded=0;orthogonalLoop=1;jettySize=auto;html=1;strokeColor=default;align=center;verticalAlign=middle;fontFamily=Helvetica;fontSize=12;fontColor=default;labelBackgroundColor=default;startSize=8;endArrow=classic;endSize=8;" edge="1" parent="UqnikVBFZXVHztVdu1Yq-1" source="UqnikVBFZXVHztVdu1Yq-10" target="UqnikVBFZXVHztVdu1Yq-14">
          <mxGeometry relative="1" as="geometry" />
        </mxCell>
        <mxCell id="UqnikVBFZXVHztVdu1Yq-9" style="edgeStyle=orthogonalEdgeStyle;curved=1;rounded=0;orthogonalLoop=1;jettySize=auto;html=1;entryX=0;entryY=0.5;entryDx=0;entryDy=0;strokeColor=default;align=center;verticalAlign=middle;fontFamily=Helvetica;fontSize=12;fontColor=default;labelBackgroundColor=default;startSize=8;endArrow=classic;endSize=8;" edge="1" parent="UqnikVBFZXVHztVdu1Yq-1" source="UqnikVBFZXVHztVdu1Yq-10" target="UqnikVBFZXVHztVdu1Yq-17">
          <mxGeometry relative="1" as="geometry" />
        </mxCell>
        <mxCell id="UqnikVBFZXVHztVdu1Yq-10" value="&lt;b&gt;Machine Learning&lt;/b&gt;&lt;div&gt;&lt;b&gt;What is AI&lt;/b&gt;&lt;/div&gt;" style="rounded=0;whiteSpace=wrap;html=1;" vertex="1" parent="UqnikVBFZXVHztVdu1Yq-1">
          <mxGeometry x="-30" y="1470" width="130" height="30" as="geometry" />
        </mxCell>
        <mxCell id="UqnikVBFZXVHztVdu1Yq-11" value="&lt;b&gt;Machine Learning&lt;/b&gt;" style="rounded=0;whiteSpace=wrap;html=1;" vertex="1" parent="UqnikVBFZXVHztVdu1Yq-1">
          <mxGeometry x="200" y="1170" width="60" height="30" as="geometry" />
        </mxCell>
        <mxCell id="UqnikVBFZXVHztVdu1Yq-12" value="&lt;b&gt;Computer vision&lt;/b&gt;" style="rounded=0;whiteSpace=wrap;html=1;" vertex="1" parent="UqnikVBFZXVHztVdu1Yq-1">
          <mxGeometry x="210" y="1260" width="90" height="30" as="geometry" />
        </mxCell>
        <mxCell id="UqnikVBFZXVHztVdu1Yq-13" value="&lt;b&gt;NLP&lt;/b&gt;" style="rounded=0;whiteSpace=wrap;html=1;" vertex="1" parent="UqnikVBFZXVHztVdu1Yq-1">
          <mxGeometry x="185" y="1410" width="90" height="30" as="geometry" />
        </mxCell>
        <mxCell id="UqnikVBFZXVHztVdu1Yq-14" value="&lt;b&gt;Document Intelligence&lt;/b&gt;" style="rounded=0;whiteSpace=wrap;html=1;" vertex="1" parent="UqnikVBFZXVHztVdu1Yq-1">
          <mxGeometry x="185" y="1470" width="90" height="30" as="geometry" />
        </mxCell>
        <mxCell id="UqnikVBFZXVHztVdu1Yq-15" value="&lt;b&gt;Knowledge Mining&lt;/b&gt;" style="rounded=0;whiteSpace=wrap;html=1;" vertex="1" parent="UqnikVBFZXVHztVdu1Yq-1">
          <mxGeometry x="185" y="1530" width="90" height="30" as="geometry" />
        </mxCell>
        <mxCell id="UqnikVBFZXVHztVdu1Yq-16" value="&lt;b&gt;Generative AI&lt;/b&gt;" style="rounded=0;whiteSpace=wrap;html=1;" vertex="1" parent="UqnikVBFZXVHztVdu1Yq-1">
          <mxGeometry x="185" y="1600" width="90" height="30" as="geometry" />
        </mxCell>
        <mxCell id="UqnikVBFZXVHztVdu1Yq-17" value="&lt;b&gt;Challenges and Risks&lt;/b&gt;" style="rounded=0;whiteSpace=wrap;html=1;" vertex="1" parent="UqnikVBFZXVHztVdu1Yq-1">
          <mxGeometry x="185" y="1680" width="90" height="30" as="geometry" />
        </mxCell>
      </root>
    </mxGraphModel>
  </diagram>
</mxfile>
